<svg xmlns="http://www.w3.org/2000/svg" viewBox="0 0 24 24" fill="none">
  <path d="M12 2a10 10 0 0 0-3.16 19.49c.5.1.68-.2.68-.47v-1.69c-2.78.6-3.37-1.18-3.37-1.18-.45-1.17-1.1-1.47-1.1-1.47-.9-.61.07-.6.07-.6 1 .07 1.52 1.02 1.52 1.02.88 1.51 2.33 1.07 2.9.82.1-.65.35-1.08.63-1.33-2.22-.25-4.56-1.11-4.56-4.95 0-1.09.39-1.97 1.03-2.67-.1-.25-.44-1.25.1-2.6 0 0 .84-.27 2.74 1.02a9.54 9.54 0 0 1 5 0c1.9-1.3 2.74-1.02 2.74-1.02.54 1.35.2 2.35.1 2.6.64.7 1.03 1.58 1.03 2.67 0 3.85-2.34 4.7-4.57 4.94.36.32.69.94.69 1.9v2.82c0 .27.18.58.69.47A10 10 0 0 0 12 2Z" fill="#d8dde8"/>
</svg>
